<?xml version="1.0"?>
<svg version="1.1" xmlns="http://www.w3.org/2000/svg" width="400" height="200" style=""><path fill="#ed0e3f" d="M15.98,118.655q0-3.78,2.24-7.49q-2.59-1.645-2.59-4.865q0-3.885,3.43-6.895q3.85-3.395,9.94-3.395q2.8,0,6.02,0.805q0.735,0.175,6.265,2.7125t7.945,2.5375q1.61,0,2.415-0.91q0.42-0.455,0.42-0.98t-0.455-0.945q-0.245-0.35-0.245-0.455t0.1925-0.105t0.665,0.6125t0.4725,1.435t-1.1025,1.575t-2.7825,0.7525q-2.625,0-8.155-2.5375t-6.9475-2.8175t-3.2375-0.28q-7.245,0-11.41,4.69q-0.49,0.525-1.155,2.1175t-0.665,3.0625q0,2.03,1.435,3.15q1.82-2.66,4.305-4.235t5.04-1.575q3.15,0,3.15,2.45q0,2.94-3.4475,6.3875t-6.3875,3.4475q-1.89,0-1.89-1.61q0-0.56,0.2975-0.98t0.7175-0.315l-0.07,0.805q0,0.525,1.61,0.525q2.38,0,5.0225-2.45t3.2025-4.795q0.14-0.525,0.14-0.945q0-1.575-2.0125-1.575t-4.165,1.54t-4.0425,4.06q0.14,0.07,1.085,0.28l2.1,0.07q1.54,0.07,1.54,0.35q0,0.49-1.47,0.49l-0.21,0q-2.135,0-3.5-0.525q-2.695,4.13-2.695,7.595q0,4.48,3.465,4.48q3.92,0,8.155-5.46l6.86-10.22q3.85-5.6,6.685-5.74l1.33,0.315q0.63,0.35,0.63,1.05t-0.35,0.7l-1.12-0.175q-2.415,0-6.195,5.215l-6.965,9.73q-4.48,5.215-8.575,5.215q-2.8,0-3.8675-1.505t-1.0675-4.375z M51.30095,110.535l0.49-0.105q0.385,0,0.735,0.315t0.35,0.49t-2.17,3.3775t-2.17,4.4625q0,0.105,0.035,0.21q0.175,0.805,0.77,0.805q1.82,0,6.65-6.02q0.105-0.14,0.245-0.14t0.14,0.2625t-0.315,0.6825q-4.48,5.985-6.825,5.985q-0.315,0-0.595-0.105q-1.54-0.595-1.54-2.31q0-0.595,0.14-1.19l-2.17,2.1q-2.065,1.82-2.9925,1.82t-1.7675-0.595q-0.945-0.7-0.945-1.855q0-2.555,3.57-6.1075t6.545-3.5525q1.155,0,1.54,0.805q0.105,0.28,0.175,0.4725t0.105,0.1925z M40.83595,119.145q0,1.26,0.875,1.26q2.03,0,5.53-4.445l3.71-5.11q-0.28-0.49-0.91-0.49q-2.135,0-5.67,3.3075t-3.535,5.4775z M64.2394,107.0525q0.4725,0.3325,0.4725,0.7875t-0.4375,0.7875t-0.9625,0.3325t-0.9625-0.385t-0.4375-0.875q0-0.98,1.33-0.98q0.525,0,0.9975,0.3325z M56.9069,121.385q-1.785,0-1.785-2.31q0-1.89,2.065-5.2325t3.325-3.3775q0.35,0,0.7875,0.28t0.4375,0.56q-0.175,0.245-0.42,0.5425t-0.525,0.6475t-0.77,0.9975t-0.945,1.2425q-2.625,3.395-2.625,4.6725t0.875,1.2775q0.735,0,1.995-0.805q2.94-1.82,4.655-3.99q0.63-0.805,0.8575-0.805t0.2275,0.28t-0.805,1.12t-1.2775,1.33t-0.6475,0.6475t-0.6475,0.595t-0.7175,0.6125t-0.7,0.525t-0.805,0.5075t-0.805,0.3675q-0.735,0.315-1.75,0.315z M67.62285,120.3q1.155,0,2.975-1.225t3.535-3.325q0.42-0.56,0.665-0.56t0.245,0.21t-1.435,1.82q-3.5,3.85-5.845,3.85q-1.155,0-1.96-0.5425t-0.805-1.68t0.595-2.6425q1.015-2.38,3.255-5.985q4.095-6.65,5.81-6.65q0.35,0,0.7175,0.2625t0.4025,0.5775q-0.805,1.085-3.0975,4.165t-3.1675,4.4275t-1.3125,2.0125t-0.6475,1.0325t-0.49,0.9625q-0.595,1.19-0.595,2.24t1.155,1.05z M81.5938,120.475q-1.015,0.595-2.5025,0.595t-2.275-0.98t-1.3475-3.115q-0.63,0.63-0.875,0.63q-0.175,0-0.175-0.245t0.175-0.42q1.155-1.435,3.92-4.13l4.41-4.13q1.89-1.785,2.24-1.785q1.12,0,1.12,0.84q0,0.42-0.3325,0.8225t-0.49,0.63t-0.3325,0.4375q-0.63,1.085-1.2775,4.48t-0.9975,4.725q2.905-0.035,5.985-3.78q0.35-0.35,0.525-0.35t0.175,0.2275t-0.315,0.6125q-2.03,2.38-3.78,3.325q-1.05,0.525-2.73,0.875z M76.8688,116.59q0,1.19,0.7875,1.9425t1.7675,0.7525t1.505-0.385q0.7-0.385,1.3825-3.22t0.8225-5.005l0.14-1.19q-1.925,1.435-4.1125,3.71t-2.2575,3.01q-0.035,0.21-0.035,0.385z M106.8757,109.73l5.04-0.07q0.105,0.07,0.105,0.105q0,0.315-4.3575,0.875t-4.7075,0.665q-0.665,0.595-2.45,3.5525t-1.785,4.3225q0,1.295,1.785,1.295q0.84,0,2.205-0.525t2.1-0.98q1.96-1.225,4.2-3.605q0.49-0.49,0.665-0.49q0.105,0,0.105,0.21t-0.525,0.84q-1.82,2.24-4.095,3.605q-2.73,1.68-5.215,1.68q-1.085,0-1.7675-0.4725t-0.6825-1.9075t1.26-3.9375t1.925-3.7275q-0.49,0.105-0.84,0.105q-1.015,0-1.015-0.805q0-0.595,0.84-0.84q0.105,0,0.315-0.035l2.03,0q0.63-0.805,1.435-1.855q0.98-1.26,1.33-1.26t0.875,0.28t0.525,0.665t-1.68,2.275q0.91,0.035,2.38,0.035z M118.81665,113.58q0,1.225-2.345,4.095q-2.765,3.395-4.725,3.395l-0.56,0q-0.91,0-1.435-0.945q-0.42-0.665-0.42-1.47q0-2.1,3.0625-5.8975t4.9525-3.7975q1.785,0,1.785,1.89q0,0.49-0.175,1.26q0.035,0.105,0.665,0.105t1.925-0.665q-0.035,0.595-2.765,1.715q0.035,0.14,0.035,0.315z M116.54165,111.76q-1.19,0-3.3775,2.8t-2.1875,4.13t0.84,1.33q1.505,0,3.815-2.73t2.31-3.92q-0.56-0.315-1.4-1.61z M130.51855,118.655q0-3.78,2.24-7.49q-2.59-1.645-2.59-4.865q0-3.885,3.43-6.895q3.85-3.395,9.94-3.395q2.8,0,6.02,0.805q0.735,0.175,6.265,2.7125t7.945,2.5375q1.61,0,2.415-0.91q0.42-0.455,0.42-0.98t-0.455-0.945q-0.245-0.35-0.245-0.455t0.1925-0.105t0.665,0.6125t0.4725,1.435t-1.1025,1.575t-2.7825,0.7525q-2.625,0-8.155-2.5375t-6.9475-2.8175t-3.2375-0.28q-7.245,0-11.41,4.69q-0.49,0.525-1.155,2.1175t-0.665,3.0625q0,2.03,1.435,3.15q1.82-2.66,4.305-4.235t5.04-1.575q3.15,0,3.15,2.45q0,2.94-3.4475,6.3875t-6.3875,3.4475q-1.89,0-1.89-1.61q0-0.56,0.2975-0.98t0.7175-0.315l-0.07,0.805q0,0.525,1.61,0.525q2.38,0,5.0225-2.45t3.2025-4.795q0.14-0.525,0.14-0.945q0-1.575-2.0125-1.575t-4.165,1.54t-4.0425,4.06q0.14,0.07,1.085,0.28l2.1,0.07q1.54,0.07,1.54,0.35q0,0.49-1.47,0.49l-0.21,0q-2.135,0-3.5-0.525q-2.695,4.13-2.695,7.595q0,4.48,3.465,4.48q3.92,0,8.155-5.46l6.86-10.22q3.85-5.6,6.685-5.74l1.33,0.315q0.63,0.35,0.63,1.05t-0.35,0.7l-1.12-0.175q-2.415,0-6.195,5.215l-6.965,9.73q-4.48,5.215-8.575,5.215q-2.8,0-3.8675-1.505t-1.0675-4.375z M156.0045,121.455q-0.385,0-0.7-0.105q-2.24-0.63-2.24-2.52q0-2.45,3.08-5.67t5.53-3.22q0.805,0,1.3125,0.4375t0.5075,1.0675q0,1.96-2.9575,3.745t-4.8125,1.785q-0.28,0-0.49-0.07q-0.525,0.945-0.525,1.995q0,1.82,1.7325,1.82t4.4975-2.345q2.135-1.715,3.64-3.64q0.315-0.42,0.5425-0.42t0.2275,0.21t-0.28,0.595q-1.89,2.485-4.55,4.41t-4.515,1.925z M162.6195,111.375q0-0.42-0.8925-0.42t-2.5375,1.365q-2.205,1.82-3.43,3.815q0.21,0.07,0.455,0.07q1.33,0,3.5525-1.4175t2.7825-3.0975q0.07-0.175,0.07-0.315z M176.38045,110.535l0.49-0.105q0.385,0,0.735,0.315t0.35,0.49t-2.17,3.3775t-2.17,4.4625q0,0.105,0.035,0.21q0.175,0.805,0.77,0.805q1.82,0,6.65-6.02q0.105-0.14,0.245-0.14t0.14,0.2625t-0.315,0.6825q-4.48,5.985-6.825,5.985q-0.315,0-0.595-0.105q-1.54-0.595-1.54-2.31q0-0.595,0.14-1.19l-2.17,2.1q-2.065,1.82-2.9925,1.82t-1.7675-0.595q-0.945-0.7-0.945-1.855q0-2.555,3.57-6.1075t6.545-3.5525q1.155,0,1.54,0.805q0.105,0.28,0.175,0.4725t0.105,0.1925z M165.91545,119.145q0,1.26,0.875,1.26q2.03,0,5.53-4.445l3.71-5.11q-0.28-0.49-0.91-0.49q-2.135,0-5.67,3.3075t-3.535,5.4775z M183.3864,121.455q-0.385,0-0.7-0.105q-2.24-0.63-2.24-2.52q0-2.45,3.08-5.67t5.53-3.22q0.805,0,1.3125,0.4375t0.5075,1.19t-0.455,1.575t-1.365,0.8225t-0.91-0.56q0-0.385,0.4725-1.1725t0.4725-0.84t-0.105-0.0525q-0.98,0.105-2.6775,1.4t-2.3275,2.17l-1.365,1.995q-0.35,0.56-0.5075,1.33t-0.1575,1.155t0.4375,0.875t1.2425,0.49q1.75,0,4.34-2.0475t3.99-3.9025q0.175-0.21,0.42-0.21t0.245,0.14t-0.175,0.35q-1.925,2.555-4.6025,4.4625t-4.4625,1.9075z M200.47235,120.86q-2.065,0-2.065-2.415q0-1.365,0.9625-3.0275t2.3625-3.9025q-4.48,2.24-8.12,6.615q-2.03,3.045-2.38,3.045q-1.015,0-1.015-0.595q0-0.315,0.42-1.12q3.395-6.055,5.145-8.855q4.165-6.685,5.88-7.245q0.07-0.035,0.14-0.035q0.455,0,0.63,0.735q-0.105,0.735-3.64,5.32q-3.675,4.655-4.165,6.09q1.295-0.945,4.515-3.185q3.465-2.415,4.585-2.415t1.12,0.875q0,0.14-0.0175,0.1925t-2.4325,3.3075t-2.415,4.795q0,0.805,0.595,0.805q1.89-0.07,5.67-4.55q0.315-0.315,0.4725-0.315t0.1575,0.21q0,0.7-3.465,3.78q-2.17,1.89-2.94,1.89z"/><path fill="#" d=""/></svg>
