<?xml version="1.0"?>
<svg version="1.1" xmlns="http://www.w3.org/2000/svg" width="400" height="200" style=""><path fill="#ed0e3f" d="M15.784,114.924q0-3.024,1.792-5.992q-2.072-1.316-2.072-3.892q0-3.108,2.744-5.516q3.08-2.716,7.952-2.716q2.24,0,4.816,0.644q0.588,0.14,5.012,2.17t6.356,2.03q1.288,0,1.932-0.728q0.336-0.364,0.336-0.784t-0.364-0.756q-0.196-0.28-0.196-0.364t0.154-0.084t0.532,0.49t0.378,1.148t-0.882,1.26t-2.226,0.602q-2.1,0-6.524-2.03t-5.558-2.254t-2.59-0.224q-5.796,0-9.128,3.752q-0.392,0.42-0.924,1.694t-0.532,2.45q0,1.624,1.148,2.52q1.456-2.128,3.444-3.388t4.032-1.26q2.52,0,2.52,1.96q0,2.352-2.758,5.11t-5.11,2.758q-1.512,0-1.512-1.288q0-0.448,0.238-0.784t0.574-0.252l-0.056,0.644q0,0.42,1.288,0.42q1.904,0,4.018-1.96t2.562-3.836q0.112-0.42,0.112-0.756q0-1.26-1.61-1.26t-3.332,1.232t-3.234,3.248q0.112,0.056,0.868,0.224l1.68,0.056q1.232,0.056,1.232,0.28q0,0.392-1.176,0.392l-0.168,0q-1.708,0-2.8-0.42q-2.156,3.304-2.156,6.076q0,3.584,2.772,3.584q3.136,0,6.524-4.368l5.488-8.176q3.08-4.48,5.348-4.592l1.064,0.252q0.504,0.28,0.504,0.84t-0.28,0.56l-0.896-0.14q-1.932,0-4.956,4.172l-5.572,7.784q-3.584,4.172-6.86,4.172q-2.24,0-3.094-1.204t-0.854-3.5z M44.04076,108.428l0.392-0.084q0.308,0,0.588,0.252t0.28,0.392t-1.736,2.702t-1.736,3.57q0,0.084,0.028,0.168q0.14,0.644,0.616,0.644q1.456,0,5.32-4.816q0.084-0.112,0.196-0.112t0.112,0.21t-0.252,0.546q-3.584,4.788-5.46,4.788q-0.252,0-0.476-0.084q-1.232-0.476-1.232-1.848q0-0.476,0.112-0.952l-1.736,1.68q-1.652,1.456-2.394,1.456t-1.414-0.476q-0.756-0.56-0.756-1.484q0-2.044,2.856-4.886t5.236-2.842q0.924,0,1.232,0.644q0.084,0.224,0.14,0.378t0.084,0.154z M35.66876,115.316q0,1.008,0.7,1.008q1.624,0,4.424-3.556l2.968-4.088q-0.224-0.392-0.728-0.392q-1.708,0-4.536,2.646t-2.828,4.382z M54.39152,105.642q0.378,0.266,0.378,0.63t-0.35,0.63t-0.77,0.266t-0.77-0.308t-0.35-0.7q0-0.784,1.064-0.784q0.42,0,0.798,0.266z M48.52552,117.108q-1.428,0-1.428-1.848q0-1.512,1.652-4.186t2.66-2.702q0.28,0,0.63,0.224t0.35,0.448q-0.14,0.196-0.336,0.434t-0.42,0.518t-0.616,0.798t-0.756,0.994q-2.1,2.716-2.1,3.738t0.7,1.022q0.588,0,1.596-0.644q2.352-1.456,3.724-3.192q0.504-0.644,0.686-0.644t0.182,0.224t-0.644,0.896t-1.022,1.064t-0.518,0.518t-0.518,0.476t-0.574,0.49t-0.56,0.42t-0.644,0.406t-0.644,0.294q-0.588,0.252-1.4,0.252z M57.09828,116.24q0.924,0,2.38-0.98t2.828-2.66q0.336-0.448,0.532-0.448t0.196,0.168t-1.148,1.456q-2.8,3.08-4.676,3.08q-0.924,0-1.568-0.434t-0.644-1.344t0.476-2.114q0.812-1.904,2.604-4.788q3.276-5.32,4.648-5.32q0.28,0,0.574,0.21t0.322,0.462q-0.644,0.868-2.478,3.332t-2.534,3.542t-1.05,1.61t-0.518,0.826t-0.392,0.77q-0.476,0.952-0.476,1.792t0.924,0.84z M68.27504,116.38q-0.812,0.476-2.002,0.476t-1.82-0.784t-1.078-2.492q-0.504,0.504-0.7,0.504q-0.14,0-0.14-0.196t0.14-0.336q0.924-1.148,3.136-3.304l3.528-3.304q1.512-1.428,1.792-1.428q0.896,0,0.896,0.672q0,0.336-0.266,0.658t-0.392,0.504t-0.266,0.35q-0.504,0.868-1.022,3.584t-0.798,3.78q2.324-0.028,4.788-3.024q0.28-0.28,0.42-0.28t0.14,0.182t-0.252,0.49q-1.624,1.904-3.024,2.66q-0.84,0.42-2.184,0.7z M64.49504,113.272q0,0.952,0.63,1.554t1.414,0.602t1.204-0.308q0.56-0.308,1.106-2.576t0.658-4.004l0.112-0.952q-1.54,1.148-3.29,2.968t-1.806,2.408q-0.028,0.168-0.028,0.308z M88.50056,107.784l4.032-0.056q0.084,0.056,0.084,0.084q0,0.252-3.486,0.7t-3.766,0.532q-0.532,0.476-1.96,2.842t-1.428,3.458q0,1.036,1.428,1.036q0.672,0,1.764-0.42t1.68-0.784q1.568-0.98,3.36-2.884q0.392-0.392,0.532-0.392q0.084,0,0.084,0.168t-0.42,0.672q-1.456,1.792-3.276,2.884q-2.184,1.344-4.172,1.344q-0.868,0-1.414-0.378t-0.546-1.526t1.008-3.15t1.54-2.982q-0.392,0.084-0.672,0.084q-0.812,0-0.812-0.644q0-0.476,0.672-0.672q0.084,0,0.252-0.028l1.624,0q0.504-0.644,1.148-1.484q0.784-1.008,1.064-1.008t0.7,0.224t0.42,0.532t-1.344,1.82q0.728,0.028,1.904,0.028z M98.05332,110.864q0,0.98-1.876,3.276q-2.212,2.716-3.78,2.716l-0.448,0q-0.728,0-1.148-0.756q-0.336-0.532-0.336-1.176q0-1.68,2.45-4.718t3.962-3.038q1.428,0,1.428,1.512q0,0.392-0.14,1.008q0.028,0.084,0.532,0.084t1.54-0.532q-0.028,0.476-2.212,1.372q0.028,0.112,0.028,0.252z M96.23332,109.408q-0.952,0-2.702,2.24t-1.75,3.304t0.672,1.064q1.204,0,3.052-2.184t1.848-3.136q-0.448-0.252-1.12-1.288z M107.41484,114.924q0-3.024,1.792-5.992q-2.072-1.316-2.072-3.892q0-3.108,2.744-5.516q3.08-2.716,7.952-2.716q2.24,0,4.816,0.644q0.588,0.14,5.012,2.17t6.356,2.03q1.288,0,1.932-0.728q0.336-0.364,0.336-0.784t-0.364-0.756q-0.196-0.28-0.196-0.364t0.154-0.084t0.532,0.49t0.378,1.148t-0.882,1.26t-2.226,0.602q-2.1,0-6.524-2.03t-5.558-2.254t-2.59-0.224q-5.796,0-9.128,3.752q-0.392,0.42-0.924,1.694t-0.532,2.45q0,1.624,1.148,2.52q1.456-2.128,3.444-3.388t4.032-1.26q2.52,0,2.52,1.96q0,2.352-2.758,5.11t-5.11,2.758q-1.512,0-1.512-1.288q0-0.448,0.238-0.784t0.574-0.252l-0.056,0.644q0,0.42,1.288,0.42q1.904,0,4.018-1.96t2.562-3.836q0.112-0.42,0.112-0.756q0-1.26-1.61-1.26t-3.332,1.232t-3.234,3.248q0.112,0.056,0.868,0.224l1.68,0.056q1.232,0.056,1.232,0.28q0,0.392-1.176,0.392l-0.168,0q-1.708,0-2.8-0.42q-2.156,3.304-2.156,6.076q0,3.584,2.772,3.584q3.136,0,6.524-4.368l5.488-8.176q3.08-4.48,5.348-4.592l1.064,0.252q0.504,0.28,0.504,0.84t-0.28,0.56l-0.896-0.14q-1.932,0-4.956,4.172l-5.572,7.784q-3.584,4.172-6.86,4.172q-2.24,0-3.094-1.204t-0.854-3.5z M127.8036,117.164q-0.308,0-0.56-0.084q-1.792-0.504-1.792-2.016q0-1.96,2.464-4.536t4.424-2.576q0.644,0,1.05,0.35t0.406,0.854q0,1.568-2.366,2.996t-3.85,1.428q-0.224,0-0.392-0.056q-0.42,0.756-0.42,1.596q0,1.456,1.386,1.456t3.598-1.876q1.708-1.372,2.912-2.912q0.252-0.336,0.434-0.336t0.182,0.168t-0.224,0.476q-1.512,1.988-3.64,3.528t-3.612,1.54z M133.0956,109.1q0-0.336-0.714-0.336t-2.03,1.092q-1.764,1.456-2.744,3.052q0.168,0.056,0.364,0.056q1.064,0,2.842-1.134t2.226-2.478q0.056-0.14,0.056-0.252z M144.10436,108.428l0.392-0.084q0.308,0,0.588,0.252t0.28,0.392t-1.736,2.702t-1.736,3.57q0,0.084,0.028,0.168q0.14,0.644,0.616,0.644q1.456,0,5.32-4.816q0.084-0.112,0.196-0.112t0.112,0.21t-0.252,0.546q-3.584,4.788-5.46,4.788q-0.252,0-0.476-0.084q-1.232-0.476-1.232-1.848q0-0.476,0.112-0.952l-1.736,1.68q-1.652,1.456-2.394,1.456t-1.414-0.476q-0.756-0.56-0.756-1.484q0-2.044,2.856-4.886t5.236-2.842q0.924,0,1.232,0.644q0.084,0.224,0.14,0.378t0.084,0.154z M135.73236,115.316q0,1.008,0.7,1.008q1.624,0,4.424-3.556l2.968-4.088q-0.224-0.392-0.728-0.392q-1.708,0-4.536,2.646t-2.828,4.382z M149.70912,117.164q-0.308,0-0.56-0.084q-1.792-0.504-1.792-2.016q0-1.96,2.464-4.536t4.424-2.576q0.644,0,1.05,0.35t0.406,0.952t-0.364,1.26t-1.092,0.658t-0.728-0.448q0-0.308,0.378-0.938t0.378-0.672t-0.084-0.042q-0.784,0.084-2.142,1.12t-1.862,1.736l-1.092,1.596q-0.28,0.448-0.406,1.064t-0.126,0.924t0.35,0.7t0.994,0.392q1.4,0,3.472-1.638t3.192-3.122q0.14-0.168,0.336-0.168t0.196,0.112t-0.14,0.28q-1.54,2.044-3.682,3.57t-3.57,1.526z M163.37788,116.688q-1.652,0-1.652-1.932q0-1.092,0.77-2.422t1.89-3.122q-3.584,1.792-6.496,5.292q-1.624,2.436-1.904,2.436q-0.812,0-0.812-0.476q0-0.252,0.336-0.896q2.716-4.844,4.116-7.084q3.332-5.348,4.704-5.796q0.056-0.028,0.112-0.028q0.364,0,0.504,0.588q-0.084,0.588-2.912,4.256q-2.94,3.724-3.332,4.872q1.036-0.756,3.612-2.548q2.772-1.932,3.668-1.932t0.896,0.7q0,0.112-0.014,0.154t-1.946,2.646t-1.932,3.836q0,0.644,0.476,0.644q1.512-0.056,4.536-3.64q0.252-0.252,0.378-0.252t0.126,0.168q0,0.56-2.772,3.024q-1.736,1.512-2.352,1.512z"/><path fill="#" d=""/></svg>
